<?xml version="1.0" encoding="iso-8859-1"?>
<!-- Uploaded to: SVG Repo, www.svgrepo.com, Generator: SVG Repo Mixer Tools -->
<svg fill="#000000" height="800px" width="800px" version="1.1" id="Layer_1" xmlns="http://www.w3.org/2000/svg" xmlns:xlink="http://www.w3.org/1999/xlink" 
	 viewBox="0 0 512 512" xml:space="preserve">
<g>
	<g>
		<g>
			<path d="M256,130.458c10.345,0,18.732-8.387,18.732-18.732V18.732C274.732,8.387,266.345,0,256,0s-18.732,8.387-18.732,18.732
				v92.994C237.268,122.071,245.655,130.458,256,130.458z"/>
			<path d="M256,381.542c-10.345,0-18.732,8.387-18.732,18.732v92.994c0,10.345,8.387,18.732,18.732,18.732
				s18.732-8.387,18.732-18.732v-92.994C274.732,389.929,266.345,381.542,256,381.542z"/>
			<path d="M140.42,167.64l-80.535-46.497c-8.959-5.172-20.415-2.102-25.588,6.857c-5.172,8.959-2.103,20.415,6.856,25.588
				l80.535,46.497c8.955,5.171,20.415,2.105,25.588-6.857C152.449,184.269,149.379,172.813,140.42,167.64z"/>
			<path d="M470.846,358.412l-80.535-46.497c-8.96-5.175-20.416-2.103-25.587,6.856c-5.172,8.959-2.103,20.415,6.856,25.588
				l80.535,46.497c8.955,5.172,20.414,2.105,25.588-6.856C482.875,375.041,479.805,363.585,470.846,358.412z"/>
			<path d="M121.689,311.915l-80.535,46.497c-8.959,5.172-12.028,16.629-6.856,25.588c5.175,8.964,16.634,12.026,25.588,6.856
				l80.535-46.497c8.959-5.172,12.028-16.629,6.856-25.588C142.105,309.812,130.647,306.742,121.689,311.915z"/>
			<path d="M390.311,200.086l80.535-46.497c8.959-5.172,12.028-16.629,6.856-25.588c-5.171-8.96-16.629-12.029-25.588-6.857
				l-80.535,46.497c-8.959,5.172-12.028,16.629-6.856,25.588C369.899,202.193,381.358,205.255,390.311,200.086z"/>
			<path d="M256,178.632c-42.661,0-77.368,34.707-77.368,77.368c0,42.661,34.707,77.368,77.368,77.368s77.368-34.707,77.368-77.368
				C333.368,213.339,298.661,178.632,256,178.632z"/>
		</g>
	</g>
</g>
</svg>